<?xml version="1.0" encoding="UTF-8"?> <svg xmlns="http://www.w3.org/2000/svg" width="216" height="36" viewBox="0 0 216 36" fill="none"><path d="M31.6216 4.91992V25.7882H43.8327V21.7786H35.9957V9.38519C35.9957 6.92473 34.082 4.91992 31.6216 4.91992Z" fill="#FF3D00"></path><path d="M50.4847 11.5742H46.2017V25.7902H50.4847V11.5742Z" fill="#FF3D00"></path><path d="M81.1949 19.6846C81.1949 21.0515 80.557 22.3273 78.8256 22.3273C77.1853 22.3273 76.6385 21.0515 76.6385 19.6846V11.5742H72.3555V20.8693C72.3555 23.8765 74.178 26.1547 77.3675 26.1547C78.9167 26.1547 80.4659 25.5168 81.4683 24.0588V25.7902H85.4779V11.5742H81.1949V19.6846Z" fill="#FF3D00"></path><path d="M93.4974 11.5742H89.2144V25.7902H93.4974V11.5742Z" fill="#FF3D00"></path><path d="M140.519 16.9494L139.335 16.676C138.15 16.4026 137.603 16.1292 137.603 15.4002C137.603 14.6712 138.332 14.3978 139.152 14.3978C139.973 14.3978 140.793 14.6712 140.793 15.8559H145.167C144.893 12.6664 142.524 11.1172 139.244 11.1172C135.963 11.1172 133.32 12.7575 133.32 15.6736C133.32 18.5897 135.507 19.5921 138.059 20.0477L139.426 20.3211C140.428 20.5034 141.066 20.8679 141.066 21.5969C141.066 22.4171 140.337 22.7816 139.244 22.7816C138.15 22.7816 137.239 22.3259 137.239 20.959H132.773C132.956 24.513 135.598 25.9711 139.335 25.9711C142.798 25.9711 145.44 24.4219 145.44 21.2324C145.44 18.4986 143.344 17.5873 140.519 16.9494Z" fill="#FF3D00"></path><path d="M151.637 16.9501C152.184 15.5831 153.277 14.6719 155.009 14.6719C156.649 14.6719 157.925 15.5831 158.38 16.9501H151.637ZM162.39 18.4992C162.39 14.3985 159.565 11.209 154.918 11.209C150.543 11.209 147.354 14.5807 147.354 18.6815C147.354 22.7822 150.361 26.154 154.918 26.154C158.654 26.154 161.297 24.2403 162.117 21.1419H158.016C157.378 22.2355 156.467 22.6911 155.009 22.6911C153.095 22.6911 151.819 21.5065 151.455 19.6839H162.481V18.4992H162.39Z" fill="#FF3D00"></path><path d="M122.203 22.6007C120.107 22.6007 118.467 20.8692 118.467 18.8644C118.467 16.8596 120.198 15.1282 122.203 15.1282C124.299 15.1282 125.939 16.8596 125.939 18.8644C125.939 20.8692 124.208 22.6007 122.203 22.6007ZM126.121 12.3943C124.937 11.6653 123.661 11.3008 122.203 11.3008C118.011 11.3008 114.639 14.6725 114.639 18.8644C114.639 23.0563 118.011 26.428 122.203 26.428C123.661 26.428 125.028 26.0635 126.121 25.3345V25.8813H130.131V11.6653H126.121V12.3943Z" fill="#FF3D00"></path><path d="M105.162 22.6003C103.066 22.6003 101.426 20.8689 101.426 18.8641C101.426 16.7681 103.157 15.1278 105.162 15.1278C107.167 15.1278 108.898 16.8593 108.898 18.8641C108.898 20.8689 107.258 22.6003 105.162 22.6003ZM105.617 11.3005C103.977 11.2093 102.428 11.5739 101.152 12.394V7.01744C101.152 4.73924 99.3297 3.00781 97.1426 3.00781V25.881H101.152V25.3342C102.337 26.0632 103.613 26.4277 105.071 26.4277C109.445 26.4277 112.908 22.7826 112.634 18.3173C112.361 14.4899 109.354 11.4827 105.617 11.3005Z" fill="#FF3D00"></path><path d="M48.2979 4.91992C46.931 4.91992 45.8374 6.01346 45.8374 7.38038C45.8374 8.7473 46.931 9.84083 48.2979 9.84083C49.6648 9.84083 50.7583 8.7473 50.7583 7.38038C50.7583 6.01346 49.6648 4.91992 48.2979 4.91992Z" fill="#FF3D00"></path><path d="M91.3106 4.91992C89.9436 4.91992 88.8501 6.01346 88.8501 7.38038C88.8501 8.7473 89.9436 9.84083 91.3106 9.84083C92.6775 9.84083 93.771 8.7473 93.771 7.38038C93.771 6.01346 92.6775 4.91992 91.3106 4.91992Z" fill="#FF3D00"></path><path d="M60.9646 22.5995C58.8687 22.5995 57.2284 20.8681 57.2284 18.8633C57.2284 16.7673 58.9598 15.127 60.9646 15.127C63.0606 15.127 64.7009 16.8585 64.7009 18.8633C64.7009 20.8681 63.0606 22.5995 60.9646 22.5995ZM64.792 11.573V12.3932C63.5162 11.573 61.9671 11.1174 60.3268 11.2997C56.5905 11.4819 53.4921 14.5803 53.2188 18.3165C52.9454 22.6907 56.4083 26.4269 60.7824 26.4269C62.1493 26.4269 63.4251 26.0624 64.5186 25.4245V31.4389C64.5186 33.8083 66.4323 35.722 68.8017 35.722V30.7099V17.0407V11.573H64.792Z" fill="#FF3D00"></path><path d="M10.8442 0C17.2232 0 21.6885 2.2782 21.6885 4.37415C21.6885 6.47009 17.2232 8.7483 10.8442 8.7483C4.46527 8.7483 0 6.47009 0 4.37415C0 2.2782 4.46527 0 10.8442 0Z" fill="#FF3D00"></path><path d="M11.1178 23.4214C7.65494 24.2416 4.10094 25.1529 1.82274 26.6109C0.729199 25.8819 0.0913086 25.0618 0.0913086 24.3327C0.0913086 20.8699 5.83237 19.5941 11.3912 18.3183C15.4008 17.407 19.5016 16.4957 21.7798 14.582V17.5893C21.6886 20.961 16.3121 22.2368 11.1178 23.4214Z" fill="#FF3D00"></path><path d="M10.9354 16.5848C6.74348 17.4961 2.36933 18.4985 0 20.5945V19.8654C0 13.851 6.56123 12.3018 12.9402 10.8438C17.5877 9.75024 19.7748 9.20347 21.6885 7.6543V11.026C21.6885 14.1244 16.2208 15.4002 10.9354 16.5848Z" fill="#FF3D00"></path><path d="M21.6885 21.4141C19.4103 23.3278 15.4007 24.239 11.4822 25.2414C8.65724 25.8793 5.83227 26.6084 3.73633 27.6108C5.55889 28.2487 8.01933 28.7043 10.7532 28.7043C17.041 28.7043 21.5974 26.4261 21.5974 24.3302V21.4141H21.6885Z" fill="#FF3D00"></path><path d="M164.395 23.4207C164.395 21.8715 165.489 20.5957 167.22 20.5957C168.951 20.5957 170.045 21.8715 170.045 23.4207C170.045 24.8787 168.86 26.1545 167.22 26.1545C165.58 26.1545 164.395 24.8787 164.395 23.4207Z" fill="#FF3D00"></path><path d="M176.15 18.6815C176.15 20.6863 177.517 22.2355 179.613 22.2355C181.709 22.2355 183.167 20.6863 183.167 18.6815C183.167 16.6767 181.8 15.1275 179.613 15.1275C177.426 15.1275 176.15 16.6767 176.15 18.6815ZM187.359 18.6815C187.359 22.7822 184.261 26.154 179.613 26.154C174.966 26.154 171.867 22.7822 171.867 18.6815C171.867 14.5807 174.874 11.209 179.613 11.209C184.261 11.209 187.359 14.5807 187.359 18.6815Z" fill="#FF3D00"></path><path d="M194.376 25.7901H190.093V11.5742H194.103V14.0346C195.105 12.1209 196.654 11.3008 198.113 11.3008C198.477 11.3008 198.75 11.3008 199.024 11.3919V15.4015C198.75 15.3104 198.386 15.2193 197.93 15.2193C195.288 15.2193 194.285 17.2241 194.285 19.32V25.7901H194.376Z" fill="#FF3D00"></path><path d="M207.316 22.5995C205.22 22.5995 203.58 20.8681 203.58 18.8633C203.58 16.7673 205.312 15.127 207.316 15.127C209.412 15.127 211.053 16.8585 211.053 18.8633C211.144 20.8681 209.412 22.5995 207.316 22.5995ZM211.235 11.573V12.3932C209.959 11.573 208.41 11.1174 206.77 11.2997C203.033 11.4819 199.935 14.5803 199.662 18.3165C199.388 22.6907 202.851 26.4269 207.225 26.4269C208.592 26.4269 209.868 26.0624 210.962 25.4245C210.962 27.2471 211.326 30.1632 207.772 30.1632C205.949 30.1632 204.765 29.343 204.674 27.9761H200.482C200.664 31.1656 203.58 33.626 207.772 33.626C212.693 33.626 215.062 30.7099 215.153 26.8825V17.0407V11.573H211.235Z" fill="#FF3D00"></path></svg> 