<svg width="2000" height="640" viewBox="0 0 2000 640" fill="none" xmlns="http://www.w3.org/2000/svg">
<path d="M295.109 337.895C271.564 330.879 247.361 326.307 222.883 324.253C183.649 321.081 142.771 325.245 128.344 327.016C131.215 346.232 136.441 365.019 143.903 382.952L170.247 377.938C183.776 376.04 197.399 374.893 211.055 374.5C221.001 374.068 230.964 374.287 240.882 375.156L235.967 356.605C314.646 356.712 378.527 385.999 421.615 413.976L456.446 439.454L456.552 439.542C462.823 431.254 468.631 422.624 473.95 413.692C394.74 343.246 290.07 310.929 290.07 310.929L295.109 337.895ZM247.795 223.562L247.689 247.694C213.338 234.737 177.721 225.437 141.428 219.948C139.518 219.735 137.715 219.558 136.017 219.398C135.54 221.383 135.08 223.403 134.673 225.458C131.002 238.939 128.435 252.699 127 266.599C130.819 266.74 134.561 266.912 138.227 267.113L173.819 270.018C189.997 271.79 204.336 274.235 216.5 276.769C246.222 282.828 261.604 289.171 261.604 289.171L260.791 269.469C327.5 289.366 382.046 324.146 423.454 358.696L458.108 390.216C464.774 396.825 470.892 403.239 476.479 409.334C481.688 400.315 486.29 390.956 490.252 381.322C396.296 274.217 247.795 223.562 247.795 223.562ZM267.244 391.881L272.319 411.584C241.294 411.714 210.477 416.657 180.962 426.236C177.514 427.388 173.889 428.664 170.247 430.01C237.611 523.082 366.84 554.567 454.572 442.182C448.791 438.462 442.09 434.475 434.098 430.134C354.941 388.302 267.333 391.864 267.333 391.864L267.244 391.881ZM160.169 170.621C170.654 173.509 177.019 175.352 177.019 175.352C181.598 177 185.859 178.612 189.873 180.153C207.907 186.904 217.826 191.723 217.826 191.723V168.956C308.352 203.24 376.953 254.994 425.434 302.052L459.929 338.32C472.836 353.026 483.427 366.492 491.755 377.813C568.596 178.701 257.679 54.8352 160.169 170.621Z" fill="black"/>
<path d="M793.885 271.489C790.455 285.663 781.791 298.544 767.894 310.131C754.504 319.581 741.125 328.918 727.758 338.143C728.536 342.094 731.295 345.035 735.821 347.002C740.347 348.969 744.803 350.882 749.011 352.725C770.77 366.899 781.655 383.725 781.667 403.203C781.667 418.192 776.552 432 766.32 444.627C758.446 454.36 746.771 463.957 731.295 473.419L693.511 495.513C690.409 497.341 686.872 498.296 683.274 498.277C674.61 498.277 668.575 494.733 665.168 487.646C665.699 465.546 666.223 443.588 666.742 421.771C666.966 400.006 668.436 378.272 671.145 356.676C665.628 353.008 662.87 348.792 662.87 344.061C662.909 342.847 663.193 341.653 663.703 340.551C664.213 339.449 664.94 338.461 665.84 337.647C668.34 335.243 671.044 333.062 673.92 331.127C677.015 294.399 677.67 257.506 675.883 220.692C663.542 218.329 655.409 212.807 651.483 204.125C651.379 202.436 651.867 200.762 652.863 199.395C653.852 197.854 654.458 196.098 654.631 194.274C660.387 189.861 667.433 187.47 674.681 187.471C679.938 187.471 692.008 189.183 710.891 192.609C721.499 194.488 731.734 198.078 741.196 203.24C769.485 217.969 786.152 232.297 791.197 246.223C794.545 256.228 795.441 264.65 793.885 271.489ZM745.068 406.375C745.577 403.646 745.838 400.876 745.846 398.1C745.938 390.461 743.29 383.042 738.385 377.193C724.994 370.626 716.46 367.336 712.783 367.324C710.76 367.316 708.757 367.72 706.895 368.512C707.143 371.151 707.284 374.039 707.284 377.193C707.043 385.709 706.317 394.204 705.109 402.636C703.906 411.199 703.192 419.824 702.97 428.469C702.872 436.208 703.933 443.918 706.117 451.342C710.416 446.729 715.395 442.803 720.881 439.702C727.564 435.627 732.22 432.012 734.848 428.858C739.528 423.33 742.934 415.836 745.068 406.375ZM756.879 251.769C755.559 242.048 747.685 234.553 733.257 229.285C729.854 227.826 726.568 226.108 723.427 224.147C721.143 222.381 718.411 221.294 715.541 221.011C714.323 221.041 713.123 221.306 712.005 221.79C711.74 226.255 711.616 231.003 711.616 235.964C711.616 242.803 712.14 254.373 713.189 270.674C713.991 285.663 714.256 297.369 713.985 305.79C715.8 305.79 718.553 304.408 722.242 301.644C725.92 298.88 728.006 297.374 728.536 297.109C737.006 292.892 744.207 286.496 749.4 278.576C755.435 269.906 757.928 260.97 756.879 251.769V251.769Z" fill="black"/>
<path d="M919.964 268.689C908.359 273.965 896.45 278.545 884.302 282.403C872.156 286.245 860.253 290.818 848.657 296.099C846.736 302.796 845.416 317.673 844.697 340.73C848.531 342.301 852.649 343.061 856.79 342.962C861.971 342.71 867.122 342.028 872.19 340.925C877.26 339.833 882.411 339.158 887.59 338.905C893.187 338.705 898.704 340.273 903.362 343.388C906.473 348.508 908.012 351.821 908.029 353.363C908.056 354.206 907.862 355.041 907.464 355.784C907.067 356.527 906.481 357.153 905.766 357.597C904.097 359.273 902.571 361.087 901.205 363.019C900.498 364.079 899.518 364.928 898.37 365.477C897.222 366.025 895.947 366.254 894.68 366.137C890.083 367.448 881.685 368.281 869.432 368.618C859.166 368.949 850.979 370.543 844.874 373.402C840.842 392.419 838.874 407.426 838.968 418.423C838.771 424.448 839.701 430.457 841.709 436.14C852.034 444.515 869.88 447.976 895.246 446.523C897.405 446.305 899.395 445.257 900.798 443.6C902.03 442.071 903.767 441.034 905.696 440.676C911.813 439.093 915.897 444.444 917.948 456.729C918.66 460.606 918.037 464.61 916.18 468.086C915.472 469.655 914.357 471.005 912.952 471.996C911.546 472.986 909.901 473.582 908.189 473.72C881.726 474.901 858.741 472.633 839.233 466.916C832.559 464.793 826.692 460.676 822.419 455.116C817.468 449.278 814.436 442.051 813.738 434.422C811.626 414.499 811.484 394.416 813.313 374.465C807.16 369.645 804.396 364.921 805.021 360.29C805.221 357.928 806.901 355.808 810.06 353.93C813.219 352.052 814.987 350.05 815.364 347.923C815.871 345.797 816.714 333.596 817.893 311.318C805.622 308.59 799.569 303.274 799.734 295.372C799.888 287.954 803.671 282.049 811.086 277.654L832.037 267.396C841.763 261.838 852.075 257.381 862.784 254.107C873.251 250.706 883.83 247.428 894.521 244.274C895.815 243.984 897.138 243.847 898.464 243.867C904.358 243.867 911.265 246.507 919.186 251.786C919.416 252.814 919.964 254.728 920.866 257.527C921.578 259.51 922.036 261.576 922.227 263.675C922.26 264.629 922.073 265.578 921.681 266.448C921.288 267.317 920.701 268.084 919.964 268.689V268.689Z" fill="black"/>
<path d="M1060.12 429.142C1061.32 432.134 1061.99 435.311 1062.1 438.532C1062.08 440.782 1061.57 442.999 1060.6 445.026C1059.63 447.054 1058.22 448.841 1056.48 450.262C1052.76 453.604 1050.23 455.169 1048.9 454.957C1038.11 452.937 1031.29 444.078 1028.42 428.38C1025.99 413.924 1022.35 399.7 1017.53 385.857L995.075 387.859C986.494 388.97 979.781 391.651 974.937 395.903C972.508 402.825 969.32 415.115 965.371 432.774C961.623 449.075 957.992 461.477 954.48 469.982C952.712 474.009 948.969 475.126 943.253 473.33C935.98 470.862 932.125 467.513 931.689 463.284C931.029 454.78 933.451 443.381 938.956 429.089C945.557 412.777 949.187 401.16 949.847 394.238C950.06 392.218 948.645 389.986 945.551 387.523C942.457 385.06 940.936 383.164 940.936 381.835C941.012 380.519 941.536 379.268 942.422 378.292C943.412 377.069 945.728 376.059 949.352 375.28C952.977 374.5 955.01 373.331 955.47 371.736C959.43 360.574 965.701 339.791 974.282 309.387C981.555 283.047 988.038 262.831 993.731 248.739C995.04 245.603 997.798 244.044 1001.97 244.044C1004.99 244.023 1007.92 245.092 1010.23 247.056C1016.4 252.43 1020.37 260.474 1022.13 271.187C1023.43 280.342 1024.61 289.502 1025.66 298.668C1036.85 351.467 1048.34 394.958 1060.12 429.142ZM1011.91 365.127C1011.09 355.772 1009.66 346.48 1007.63 337.31C1005.42 328.369 1003.33 319.427 1001.35 310.486C994.751 329.03 989.028 347.581 984.184 366.137C987.755 365.464 997.02 365.127 1011.98 365.127H1011.91Z" fill="black"/>
<path d="M1218.52 452.813C1219.24 453.68 1219.63 454.771 1219.62 455.896C1219.62 461.14 1213.86 465.139 1202.35 467.891C1189.63 458.524 1173.8 444.119 1154.87 424.677C1133.76 402.979 1118.05 387.895 1107.74 379.426C1107.03 385.332 1105.71 400.876 1103.79 426.059C1102.61 445.029 1100.46 460.119 1097.32 471.328C1095.75 471.731 1094.24 472.326 1092.81 473.1C1090.9 474.159 1088.68 474.527 1086.52 474.145C1075.91 471.783 1070.64 464.808 1070.7 453.22C1070.81 448.618 1071.29 444.032 1072.14 439.507C1073.1 432.88 1073.68 428.752 1073.91 427.104C1074.87 413.851 1075.46 398.077 1075.68 379.78V342.395C1075.68 311.318 1077.45 285.143 1080.99 263.87C1083.34 249.696 1097.37 243.199 1123.07 244.38C1136.03 244.841 1147.31 251.013 1156.89 262.896C1165.75 273.869 1170.18 285.757 1170.18 298.562C1170.18 309.299 1165.99 320.041 1157.6 330.79C1150.55 340.261 1141.45 348.003 1130.99 353.434C1126.67 355.719 1124.52 358.217 1124.52 360.964C1124.52 363.71 1127.03 367.484 1132.07 371.594L1143.58 380.453C1143.8 380.678 1156.98 392.106 1183.13 414.737C1199.78 428.876 1211.58 441.568 1218.52 452.813ZM1142.64 298.774C1143.32 295.161 1143.56 291.478 1143.35 287.807C1142.6 282.927 1140.4 278.385 1137.05 274.767C1133.59 270.88 1128.01 268.937 1120.33 268.937C1114.58 268.937 1110.97 270.709 1109.54 274.093C1108.28 280.512 1107.69 287.043 1107.77 293.583C1107.77 296.559 1108.14 304.237 1108.87 316.616C1109.35 324.286 1109.35 331.979 1108.87 339.649C1128.73 325.439 1139.99 311.814 1142.64 298.774Z" fill="black"/>
<path d="M1280.23 203.594C1280.23 209.122 1276.42 213.953 1268.81 218.087C1267.79 218.634 1266.66 218.954 1265.51 219.024C1264.36 219.094 1263.2 218.914 1262.12 218.494C1258.45 217.396 1256.47 216.847 1256.22 216.847C1255.3 216.915 1254.41 217.17 1253.6 217.596C1252.79 218.023 1252.07 218.612 1251.5 219.327C1237.35 234.246 1230.28 252.465 1230.28 273.987C1230.21 281.585 1231.41 289.142 1233.82 296.347C1234.85 299.382 1244.83 320.774 1263.73 360.521C1276.32 387.015 1282.62 409.51 1282.62 428.008C1282.6 443.273 1278.97 458.316 1272.01 471.895C1269.65 476.62 1263.76 482.691 1254.33 490.109C1246.71 495.897 1239.89 498.796 1233.85 498.808C1231.56 498.816 1229.29 498.396 1227.15 497.568C1219.29 494.024 1215.36 489.471 1215.36 483.908C1215.36 480.588 1217.33 476.584 1221.26 471.895C1222.31 470.513 1224.8 469.68 1228.74 469.414C1230.4 469.445 1232.02 468.99 1233.42 468.105C1234.82 467.22 1235.93 465.945 1236.61 464.436C1242 452.773 1244.82 440.082 1244.87 427.228C1244.87 409.298 1236.4 383.312 1219.48 349.27C1202.55 315.228 1194.07 287.925 1194.02 267.36C1193.75 251.797 1196.99 236.374 1203.48 222.233C1210.55 207.043 1220.65 196.14 1233.78 189.526C1239.23 186.627 1245.29 185.061 1251.46 184.955C1262.48 184.955 1270.73 188.132 1276.22 194.487C1278.62 196.931 1280.04 200.169 1280.23 203.594Z" fill="black"/>
<path d="M1439.2 258.608C1436.96 266.404 1433.08 270.863 1427.56 271.985C1413.22 274.974 1388.36 278.688 1352.98 283.13C1346.68 337.464 1342.88 382.81 1341.58 419.167C1341.09 432.952 1340.82 446.535 1340.79 459.918C1340.97 463.117 1340.64 466.325 1339.79 469.415C1338.62 472.888 1336.37 474.453 1333.06 474.11C1330.01 473.932 1327.03 473.066 1324.36 471.579C1321.69 470.091 1319.39 468.019 1317.62 465.517C1313.74 460.497 1311.55 454.376 1311.35 448.03C1311.18 439.915 1311.26 431.369 1311.59 422.392C1312.1 407.934 1313.87 385.09 1316.9 353.859C1319.94 323.952 1321.63 301.107 1321.97 285.327C1313.75 284.741 1305.49 284.996 1297.33 286.089C1289.04 287.196 1280.69 287.787 1272.33 287.86C1261.61 287.482 1252.97 284.305 1246.4 278.328C1243.99 272.505 1242.81 269.475 1242.87 269.239C1243.07 267.371 1243.95 265.64 1245.33 264.367C1252.4 262.181 1266.79 260.486 1288.5 259.282C1307.6 257.97 1321.93 254.947 1331.5 250.21C1339.87 253.257 1348.68 254.903 1357.58 255.082C1367.08 255.463 1376.6 254.587 1385.87 252.478C1392.66 251.591 1399.39 250.295 1406.03 248.598C1412.49 246.969 1419.19 246.525 1425.81 247.287C1429.75 247.428 1431.33 249.129 1430.55 252.389C1436.46 252.531 1439.34 254.604 1439.2 258.608Z" fill="black"/>
<path d="M1554.18 258.448C1552.58 274.867 1548.03 296.808 1540.51 324.27C1530.27 361.111 1524.37 383.4 1522.83 391.137C1517.96 414.518 1508.19 436.593 1494.15 455.896C1485.27 468.334 1475.03 474.435 1463.42 474.198C1453.19 473.974 1445.56 467.288 1440.54 454.142C1431.9 432.089 1427.58 406.156 1427.56 376.343C1427.91 354.217 1429.5 332.129 1432.34 310.184C1432.11 312.547 1432 305.271 1432 288.356C1432 273.804 1437.46 266.534 1448.39 266.545C1450.93 266.648 1453.42 267.333 1455.66 268.548C1458.28 269.847 1460.84 271.193 1463.35 272.587C1463.56 284.564 1463.22 302.164 1462.32 325.386C1461.15 350.262 1460.56 368.216 1460.56 379.249C1460.56 390.978 1460.9 401.65 1461.58 411.265C1462.04 416.19 1464.09 425.575 1467.73 439.418C1477.29 428.398 1484.8 413.733 1490.26 395.425C1492.09 389.33 1495.73 372.675 1501.19 345.461C1505.52 324.802 1510.42 308.608 1515.88 296.878C1517.47 293.583 1518.83 287.382 1519.98 278.222C1521.13 269.061 1522.47 262.736 1524.07 259.228C1525.06 256.626 1526.85 254.406 1529.18 252.887C1531.51 251.369 1534.27 250.63 1537.04 250.777C1545.06 250.729 1550.77 253.287 1554.18 258.448Z" fill="black"/>
<path d="M1661.02 373.632C1658.66 379.396 1656.38 385.155 1654.18 390.907C1651.86 396.698 1648.73 402.127 1644.88 407.03C1637.5 416.775 1630.13 426.384 1622.78 435.857C1613.98 447.35 1606.05 455.329 1598.96 459.794C1596.6 462.782 1593.99 465.901 1591.13 469.149C1588.28 472.374 1585.45 474.004 1582.62 473.968C1580.93 473.892 1579.26 473.495 1577.71 472.799C1575.83 472.037 1573.8 471.133 1571.57 470.106C1569.42 469.159 1567.73 467.403 1566.85 465.216C1566.24 454.656 1565.99 443.346 1566.09 431.286C1566.2 418.978 1566.82 400.67 1567.97 376.361C1569.11 352.052 1569.73 333.714 1569.84 321.347C1569.98 305.011 1569.52 290.057 1568.46 276.485L1560.79 267.733C1557.77 264.461 1556.27 261.431 1556.3 258.643C1556.31 257.358 1556.56 256.085 1557.02 254.887C1558.2 251.899 1560.8 250.162 1564.82 249.678C1567.88 249.217 1570.94 248.845 1574 248.633C1593.69 253.358 1614.26 265.347 1635.7 284.6C1640.95 289.264 1645.53 294.63 1649.32 300.546C1660.43 318.476 1665.92 335.232 1665.79 350.812C1665.74 358.661 1664.11 366.42 1661.02 373.632V373.632ZM1635.98 333.076C1633.98 317.224 1621.54 303.168 1598.66 290.908C1596.64 332.863 1595.79 377.335 1596.1 424.323C1622.89 396.175 1636.39 369.279 1636.6 343.636C1636.63 340.106 1636.43 336.578 1635.98 333.076V333.076Z" fill="black"/>
<path d="M1710.46 264.437C1710.95 271.807 1711.2 279.432 1711.22 287.31C1711.22 304.603 1709.45 330.666 1705.91 365.499C1702.38 400.332 1700.61 426.649 1700.61 444.45C1700.61 451.053 1700.74 457.549 1701 463.939C1698.7 471.027 1693.74 474.458 1686.13 474.234C1675.19 473.714 1669.21 468.989 1668.2 460.059C1667.15 450.688 1666.63 441.265 1666.66 431.835C1666.66 414.542 1668.76 388.733 1672.95 354.408C1677.15 320.082 1679.22 294.415 1679.18 277.406C1679.18 270.815 1678.93 264.313 1678.42 257.917C1680.96 253.085 1685.28 250.67 1691.38 250.67C1696.49 250.753 1701.5 252.196 1705.88 254.851C1706.52 254.259 1707.31 253.865 1708.17 253.717C1708.93 253.717 1709.31 254.993 1709.31 257.527C1709.02 259.287 1709.02 261.082 1709.31 262.842C1709.38 263.173 1709.52 263.486 1709.71 263.76C1709.91 264.035 1710.16 264.265 1710.46 264.437V264.437Z" fill="black"/>
<path d="M1868.43 396.648C1850.65 439.36 1825.49 464.755 1792.96 472.835C1789.11 473.788 1785.17 474.276 1781.22 474.288C1764.03 474.288 1746.7 464.33 1729.23 444.415C1717.45 430.914 1711.55 413.409 1711.55 391.9C1711.55 368.122 1718.18 342.585 1731.44 315.288C1736.77 304.306 1743.79 294.232 1752.24 285.433C1761.57 275.476 1770.46 270.497 1778.9 270.497C1783.99 270.603 1788.85 272.671 1792.46 276.273C1796.67 280.136 1807.97 285.274 1826.35 291.688C1840.81 296.826 1851.05 305.496 1857.08 317.697C1867.62 339.219 1872.93 357.687 1873 373.101C1873.08 381.179 1871.53 389.189 1868.43 396.648V396.648ZM1832.28 366.776C1830.16 343.341 1824.26 329.368 1814.6 324.855C1813.32 324.27 1811.94 323.944 1810.53 323.899C1806.9 323.899 1802.38 327.111 1796.97 333.537C1790.93 340.92 1786.27 345.255 1782.97 346.542C1780.86 347.499 1777.84 346.542 1773.93 343.654C1770.02 340.766 1767.44 339.313 1766.24 339.313C1765.81 339.303 1765.39 339.384 1765 339.553C1764.61 339.721 1764.26 339.971 1763.98 340.288C1753.44 349.902 1748.17 364.833 1748.17 385.078C1748.17 398.898 1751.18 410.621 1757.21 420.248C1765.63 433.43 1772.71 440.015 1778.42 440.004C1791.68 440.004 1804.49 431.145 1816.84 413.427C1828.64 396.784 1833.79 381.234 1832.28 366.776V366.776Z" fill="black"/>
</svg>
