<svg width="640" height="640" viewBox="0 0 640 640" fill="none" xmlns="http://www.w3.org/2000/svg">
<rect width="640" height="640" fill="white"/>
<path d="M295.207 341.821C266.466 333.265 236.922 327.691 207.042 325.186C159.15 321.318 109.252 326.396 91.6403 328.556C95.1457 351.987 101.525 374.895 110.633 396.763L142.791 390.648C159.305 388.335 175.935 386.936 192.603 386.457C204.744 385.929 216.907 386.196 229.013 387.256L223.013 364.636C319.055 364.766 397.033 400.479 449.63 434.593L492.147 465.661L492.277 465.769C499.931 455.662 507.021 445.138 513.514 434.247C416.824 348.346 289.056 308.939 289.056 308.939L295.207 341.821ZM237.452 202.405L237.322 231.831C195.39 216.031 151.914 204.691 107.611 197.998C105.28 197.739 103.079 197.523 101.007 197.328C100.424 199.748 99.8632 202.211 99.3668 204.717C94.8847 221.156 91.752 237.934 90 254.883C94.6618 255.056 99.2301 255.265 103.705 255.51L147.151 259.053C166.899 261.214 184.402 264.195 199.251 267.285C235.531 274.674 254.308 282.408 254.308 282.408L253.315 258.383C334.746 282.646 401.328 325.056 451.874 367.186L494.176 405.621C502.313 413.679 509.78 421.5 516.6 428.932C522.96 417.935 528.577 406.523 533.413 394.775C418.724 264.174 237.452 202.405 237.452 202.405ZM261.193 407.651L267.387 431.676C229.516 431.835 191.898 437.862 155.87 449.543C151.661 450.948 147.237 452.503 142.791 454.145C225.02 567.636 382.767 606.027 489.86 468.988C482.802 464.451 474.622 459.59 464.867 454.296C368.242 403.287 261.301 407.63 261.301 407.63L261.193 407.651ZM130.489 137.85C143.287 141.372 151.057 143.618 151.057 143.618C156.647 145.628 161.848 147.594 166.748 149.473C188.762 157.705 200.87 163.581 200.87 163.581V135.819C311.372 177.624 395.112 240.732 454.292 298.115L496.399 342.34C512.154 360.272 525.082 376.692 535.248 390.497C629.045 147.702 249.517 -3.33789 130.489 137.85Z" fill="black"/>
</svg>
