<svg xmlns="http://www.w3.org/2000/svg" version="1.1" xmlns:xlink="http://www.w3.org/1999/xlink" width="44" height="44"><svg xmlns="http://www.w3.org/2000/svg" version="1.1" xmlns:xlink="http://www.w3.org/1999/xlink" width="44" height="44"><svg width="44" height="44" viewBox="0 0 44 44" fill="none" xmlns="http://www.w3.org/2000/svg">
<path d="M19.7363 23.9371C17.1121 23.1776 14.4146 22.6827 11.6865 22.4603C7.31374 22.117 2.75776 22.5677 1.14976 22.7595C1.46982 24.8395 2.05226 26.8731 2.88387 28.8144L5.82004 28.2716C7.32788 28.0662 8.84622 27.942 10.3681 27.8995C11.4767 27.8527 12.5872 27.8764 13.6925 27.9705L13.1447 25.9624C21.9138 25.9739 29.0335 29.1442 33.8358 32.1726L37.7178 34.9306L37.7296 34.9402C38.4285 34.0429 39.0759 33.1088 39.6687 32.1419C30.8405 24.5163 19.1747 21.0181 19.1747 21.0181L19.7363 23.9371ZM14.463 11.5608L14.4512 14.173C10.6226 12.7705 6.65301 11.7638 2.60799 11.1696C2.39517 11.1466 2.19417 11.1274 2.005 11.1101C1.95179 11.3249 1.90055 11.5436 1.85523 11.7661C1.446 13.2254 1.15997 14.7148 1 16.2194C1.42565 16.2348 1.84275 16.2533 2.25132 16.2751L6.2181 16.5896C8.02118 16.7814 9.61932 17.0461 10.9751 17.3203C14.2876 17.9763 16.002 18.6629 16.002 18.6629L15.9114 16.5301C23.3464 18.684 29.4256 22.4488 34.0407 26.1887L37.903 29.6007C38.6459 30.3161 39.3278 31.0104 39.9505 31.6701C40.5311 30.6939 41.0439 29.6808 41.4856 28.6379C31.0139 17.0441 14.463 11.5608 14.463 11.5608ZM16.6306 29.781L17.1962 31.9137C13.7384 31.9278 10.3038 32.4628 7.01421 33.4998C6.62995 33.6245 6.22598 33.7626 5.82004 33.9083C13.3279 43.9831 27.7309 47.3912 37.5089 35.2259C36.8645 34.8232 36.1177 34.3916 35.227 33.9217C26.4047 29.3936 16.6405 29.7791 16.6405 29.7791L16.6306 29.781ZM4.69681 5.83013C5.86536 6.14275 6.57477 6.34221 6.57477 6.34221C7.08515 6.52058 7.56006 6.69511 8.00738 6.86197C10.0174 7.59269 11.1229 8.11436 11.1229 8.11436V5.64985C21.2122 9.361 28.8581 14.9632 34.2614 20.0572L38.106 23.9831C39.5445 25.575 40.7249 27.0326 41.6531 28.2582C50.2172 6.7047 15.5646 -6.70341 4.69681 5.83013Z" fill="#FFBF0F"></path>
</svg></svg><style>@media (prefers-color-scheme: light) { :root { filter: none; } }
@media (prefers-color-scheme: dark) { :root { filter: none; } }
</style></svg>