<svg viewBox="0 0 1912.5 162" xmlns="http://www.w3.org/2000/svg"><g fill="#9ac8d1"><path d="m316.46 78.41c0-10.21-3.68-33.95-36.83-33.95h-.18l-40.66.11.27 104.73h8.74l-.09-34.92 28.18-.07c2.81 0 5.64-.13 8.25-.37l26 35.2h10.86l-27.73-37.14c15.23-4.67 23.23-16.21 23.19-33.59zm-40.73 27.59-28 .08-.18-53.08 31.63-.08h.15c9.72 0 17.07 2.6 21.86 7.73 4.06 4.35 6.22 10.55 6.24 17.93.06 22.58-17.21 27.36-31.7 27.42z"/><path d="m358.29 140.55-.1-38.26 52.45-.13-.02-8.31-52.45.14-.11-41.28 61.37-.16-.03-8.45-70.1.18.27 104.74 73.12-.19-.02-8.45z"/><path d="m415.7 15.01-10.95-.97-25.67 25.97 9.81-.02z"/><path d="m499.62 98.22v8.3l41-.1v22.58c-10.24 7.56-22.88 11.56-36.62 11.6h-.13c-25.38 0-46.07-19.78-46.13-44.16a42.88 42.88 0 0 1 13.45-31.2 46.94 46.94 0 0 1 32.58-13h.23c13.77 0 26.22 4.45 35.07 12.54l1.26 1.15 5.89-6.4-1.22-1.16c-10.6-9.78-24.75-14.92-41-14.92h-.21a55.82 55.82 0 0 0 -38.79 15.6 51.48 51.48 0 0 0 -16.1 37.42c.08 29.1 24.74 52.72 55 52.72h.15c16.65 0 32.95-5.62 44.73-15.3l.62-.51-.09-35.29z"/><path d="m583.83 43.66h8.74v104.73h-8.74z" transform="matrix(.99999657 -.00261799 .00261799 .99999657 -.25 1.54)"/><path d="m719.41 58.41a55.55 55.55 0 0 0 -38.72-15.41h-.16a55.72 55.72 0 0 0 -38.85 15.59 51.52 51.52 0 0 0 -16 37.42c.08 29.1 24.74 52.73 55 52.73h.15c30.26-.08 54.82-23.86 54.74-53a51.61 51.61 0 0 0 -16.16-37.33zm-38.63 81.59h-.12c-25.39 0-46.07-19.72-46.13-44a43 43 0 0 1 13.47-31.29 46.81 46.81 0 0 1 32.57-13.12h.12c25.31 0 45.92 19.79 46 44.16s-20.54 44.18-45.91 44.25z"/><path d="m846.24 43 .23 88.01-71.86-87.83-6.12.02.27 104.73 8.74-.02-.22-88.01 71.48 87.2.52.62 5.97-.01-.27-104.73z"/><path d="m1011.84 43.53.2 77.44-63.22-77.28-10.82.03.27 106.27 15.09-.04-.2-77.46 63.37 77.3 10.68-.03-.28-106.27z"/><path d="m1107.24 42.87h-.15a56.38 56.38 0 0 0 -39.26 15.77 52.34 52.34 0 0 0 -16.27 38c.08 29.51 25 53.47 55.65 53.47h.15a56.2 56.2 0 0 0 39.19-15.77 52.38 52.38 0 0 0 16.2-38c-.08-29.51-24.96-53.47-55.51-53.47zm28.68 80.71a41 41 0 0 1 -28.6 11.42h-.08a41.17 41.17 0 0 1 -28.54-11.3 37.31 37.31 0 0 1 -11.88-27.12c-.06-21.32 18-38.71 40.33-38.77h.11c22.17 0 40.24 17.28 40.29 38.56a37.43 37.43 0 0 1 -11.63 27.21z"/><path d="m1267.8 78.6c0-10-3.07-18.56-8.8-24.73-6.73-7.24-16.67-10.9-29.57-10.9h-.18l-42 .11.28 106.27h15.08l-.08-33.17 23.37-.06c2.09 0 4.2-.08 6.22-.22l24.64 33.31h18.8l-27.72-37.05c12.98-5.76 20.01-17.41 19.96-33.56zm-22.26 17.4c-4.47 3.58-11.14 5.41-19.82 5.43l-23.24.06-.11-43.61 26.65-.07h.12c8.26 0 14.41 2.11 18.3 6.27 4.12 4.41 5 10.44 5 14.72 0 7.82-2.23 13.44-6.9 17.2z"/><path d="m1384.37 42.56-40.29 66.22-40.63-66.01-11.24.03.27 106.27 15.09-.04-.19-71.64 36.78 59.93 36.32-60.07.18 71.6 15.09-.04-.28-106.27z"/><path d="m1460.65 42.37-47.65 106.39h16.5l12.21-27.88 48.49-.12 12.49 27.81h16.31l-48-106.23zm-12.65 64.05 17.75-40.52 18.15 40.43z"/><path d="m1609.84 41.98.2 77.45-63.23-77.28-10.82.02.28 106.27 15.08-.04-.2-77.46 63.37 77.3 10.68-.03-.28-106.27z"/><path d="m1689.25 41.79h-.14l-34.64.09.28 106.27 37.77-.1h.33a53.18 53.18 0 0 0 -3.6-106.25zm2.6 91.49h-22l-.2-76.64h19.65a38.29 38.29 0 0 1 38.25 38.29c-.05 19.66-15.64 36.47-35.7 38.35z"/><path d="m1767.36 41.5h15.09v106.27h-15.09z" transform="matrix(.99999657 -.00261799 .00261799 .99999657 -.24 4.65)"/><path d="m1888.46 132.72-61.15.15-.08-29.54 49.83-.13-.04-14.68-49.82.13-.09-32.42 58.29-.15-.04-14.81-73.37.19.27 106.27 76.24-.2z"/><path d="m82.6 99c.35-.83.59-1.85.36-1.7-1.53 1.09-3.53 0-3.53 0s-2.06 1-3.52 0c-.27-.19.1 1.3.56 2.14.65 1.17 1 2.85 2.9 2.85h.09a2.58 2.58 0 0 0 .83-.13c.9-.08 1.22-.67 1.67-1.68.12-.25.24-.52.38-.78a5.51 5.51 0 0 0 .31-.7z"/><path d="m82.6 46.14c.35-.82.59-1.85.36-1.69-1.53 1-3.53-.06-3.53-.06s-2.06 1.06-3.52.06c-.27-.19.1 1.3.56 2.13.65 1.17 1 2.85 2.9 2.85h.09a2.82 2.82 0 0 0 .81-.12c.91-.08 1.24-.67 1.69-1.68.12-.26.24-.53.38-.79a5.51 5.51 0 0 0 .31-.7z"/><path d="m170.63 12-137.39 13.71c-21.1 35.66-25.49 76.29-13.59 110.72l164.57 16.45c-25.6-45.22-29.99-96.88-13.59-140.88zm-23.77 89.84c-2.13 3.46-7 5.49-12.51 5.16-3.95-.29-5.95-.5-7.36-.52l-1.09-.12c.17.16.36.33.56.53a14.22 14.22 0 0 1 1.25 1.38 8.79 8.79 0 0 0 4.63 3.47 15.12 15.12 0 0 0 3.53.63h.67c2 0 4.77-1.75 5-1.81a1 1 0 0 1 .91.19.7.7 0 0 1 .15.81v.08a.94.94 0 0 1 -.12.18c-.64.7-.87 1.38-.64 1.81.28.59 1.53.85 3 .59a.69.69 0 0 1 .78.39.7.7 0 0 1 -.34.93l-.15.08h-.13c-.91.3-1.26.55-1.28.87s.66.93 2.38 1.32a.71.71 0 0 1 -.12 1.4h-.2c-.86.07-1.78 1.59-1.78 4 0 1.85 0 3.21.16 4.28v.1a8.17 8.17 0 0 1 -.14 1.2c-.54 2.81-1.59 4.39-3.12 4.81a15.14 15.14 0 0 1 -3.49.28c-1.92 0-3.79-.14-3.92-.14a.67.67 0 0 1 -.49-.25.76.76 0 0 1 -.17-.52 11.58 11.58 0 0 1 .46-2.33 5.32 5.32 0 0 0 -1.06 2.19 1.08 1.08 0 0 1 -.1.56.71.71 0 0 1 -.51.29 15.86 15.86 0 0 1 -2 0 .68.68 0 0 1 -.63-.49.7.7 0 0 1 -.66.48 4.39 4.39 0 0 1 -1.69-.17.69.69 0 0 1 -.43-.61 5.36 5.36 0 0 1 .43-2.4c.94-1.86 2-2.39 3.26-2.31l.73.07a2.54 2.54 0 0 1 2.12-1 8.18 8.18 0 0 1 1.63.28l.45.1c.53 0 1.12-1.2 1.43-1.82a4.36 4.36 0 0 0 -1.69-4.94c-.49-.07-8.06-.7-10.41-1.45a25 25 0 0 1 -5.72-2.59 12.79 12.79 0 0 0 -2.61-1.32c-2.1.51-3.06 1.23-3 1.58s1.41 1.28 3.7 1.75l.75.21a.7.7 0 0 1 .52.76.72.72 0 0 1 -.67.63c-1.52.07-2.67.57-2.82 1.25s.8 1.61 2.26 2.21a.7.7 0 0 1 .35.35.71.71 0 0 1 -.35.94h-.08a.72.72 0 0 1 -.54 0c-1.31-.53-2.34-.44-2.56-.2s-.09.89.33 1.61a.71.71 0 0 1 -.12.86.72.72 0 0 1 -.87.09l-.33-.21c-.72-.45-2.48.26-4.07 2.2a2.18 2.18 0 0 0 -.51 1.16.33.33 0 0 1 0 .14c-.34 1.07-.71 1.64-2.56 2.17a13 13 0 0 1 -3.11.29c-1.63 0-3.16-.14-3.27-.14a.71.71 0 0 1 -.64-.76 12.08 12.08 0 0 1 .31-1.88 4.39 4.39 0 0 0 -.69 1.74c0 .25 0 .39-.11.55a.65.65 0 0 1 -.49.29 10.46 10.46 0 0 1 -1.77 0 .7.7 0 0 1 -.64-.53.71.71 0 0 1 -.67.53 4.78 4.78 0 0 1 -1.64-.17.71.71 0 0 1 -.43-.62 5.28 5.28 0 0 1 .41-2.32c.92-1.81 1.92-2.33 3.12-2.25l.65.06a2.3 2.3 0 0 1 1.94-.93 7.32 7.32 0 0 1 1.47.27l.38.1c.29 0 .75-.74 1.22-1.22.19-.2.41-.42.61-.61s.53-.44 1-.77c.68-.53 1.51-1.18 2.23-1.86.38-.44.32-.67-1.15-2.56l-.29-.38c-2-2.57-2.27-5-.91-7.5a3.1 3.1 0 0 1 1.49-1.21 45.42 45.42 0 0 0 -6.28 1.92 18 18 0 0 0 -6 4.7 12.49 12.49 0 0 1 -2.45 2.58 7.68 7.68 0 0 1 -3.45.57 5.34 5.34 0 0 0 -.8 0c-2 .21-3.48 1.24-3.48 2.06a.7.7 0 0 1 -1.36.24c-.5-1.21-1.27-1.92-2-1.92a1.35 1.35 0 0 0 -.92.52 5 5 0 0 0 -.9 3.52v.16a.7.7 0 1 1 -1.39.17c-.27-1.6-1.08-2.6-1.7-2.6a1 1 0 0 0 -.66.36 4.66 4.66 0 0 0 -.92 3.2v.08a.73.73 0 0 1 -.63.74.71.71 0 0 1 -.77-.58c-.2-1.29-.79-2-1.2-2-.57 0-1.44 1.22-1.57 3.22a.71.71 0 0 1 -.65.66.7.7 0 0 1 -.74-.56c-.17-.8-.53-1.42-.89-1.42-.52-.06-1.33.88-1.72 2.37a.7.7 0 0 1 -1.35 0c-.07-.2-.18-.45-.38-.52a2.92 2.92 0 0 0 -2.33 1h-.06a3.91 3.91 0 0 0 -1.08 1.31c-.1.18-.17.35-.24.49-.4.85-.74 1.4-2.46 1.9-2 .57-6.59.17-6.79.17a.71.71 0 0 1 -.64-.76 13.1 13.1 0 0 1 .4-2.32 5.25 5.25 0 0 0 -.9 2.17c0 .25 0 .39-.11.56a.7.7 0 0 1 -.49.29 14.74 14.74 0 0 1 -1.88 0 .7.7 0 0 1 -.65-.6 3.93 3.93 0 0 1 0-.84 3.09 3.09 0 0 0 -.25.78.71.71 0 0 1 -.69.65 4 4 0 0 1 -1.64-.19.68.68 0 0 1 -.4-.6 6 6 0 0 1 .39-2.45c.89-1.94 2-2.51 3.22-2.42l1 .09a2.39 2.39 0 0 1 2.06-1 7.62 7.62 0 0 1 1.57.29l.41.1c3.08-1.07 5.51-3.64 15.31-12.07.7-.61.45-.43.45-.43a8.13 8.13 0 0 0 -.78-.52 5.38 5.38 0 0 0 -4.37.58l-.13.07a.69.69 0 0 1 -.87-.17.67.67 0 0 1 -.15-.56c0-.2 0-.38.13-.49 1.44-.91 2.31-1.86 2-2.43s-2.11-.76-4.23.24h-.08a.7.7 0 0 1 -.92-.29.77.77 0 0 1 .13-1c1.17-.76 1.63-1.43 1.51-1.69-.21-.47-1.88-.67-3.88.09a.72.72 0 0 1 -.87-.34.77.77 0 0 1 .13-1c.77-.52 1.25-.83 1.11-1.21s-1.31-.73-3.08-.38a.7.7 0 0 1 -.77-.39.89.89 0 0 1 .08-1c.23-.18.46-.26.45-.37s-.14-.4-.59-.75l-.75-.63-.41-.34a5.18 5.18 0 0 0 -2.2-1.06 5 5 0 0 1 -2.3-1.15 5.56 5.56 0 0 1 -1.2-1.86s-.48-.82-.48-.82a4.32 4.32 0 0 0 -1.75-.25.73.73 0 0 1 -.69-.48 1.12 1.12 0 0 1 .1-.86c.1-.06.6-.25 1.1-.5l-.3-.31-.06-.07s-.87-.93-.87-.93a4.37 4.37 0 0 0 -1.72-.23.71.71 0 0 1 -.68-.48c-.1-.29-.15-.63.1-.81.07-.06.55-.28 1-.51-.07-.07-.61-.95-.72-1.07a3.57 3.57 0 0 0 -1.22 0 .69.69 0 0 1 -.73-.42c-.17-.29-.25-.62 0-.83s2.66-2 4.19-.89c.12.09.23.19.34.29 2.7-.53 4.37-.38 5.09.62.1.14.31.43.52.74a3.75 3.75 0 0 1 2.71 1.26 6.33 6.33 0 0 1 1 1.65 29.54 29.54 0 0 0 4.84 4.83c.53.4 3.46 2 5.25 2.86.4.16 6.06 2.42 9.59 2.34a2.23 2.23 0 0 0 .58-1.25c-.14-.61-1.65-1-2.42-1.06a1 1 0 0 1 -.78-.75c0-.33.19-.51.51-.62.59-.21 2.41-1 2.59-2 0-.23-1-.86-2.25-1.15a1 1 0 0 1 -.67-.95c0-.29.41-.37.68-.43.76-.19 2.46-.81 2.52-1.48a14.31 14.31 0 0 1 .33-3.2q-.11-.17-.21-.36a4.09 4.09 0 0 1 -.28-3.16c.1-.26.36-1 .8-1.26a4.12 4.12 0 0 1 3.47.93 11.25 11.25 0 0 1 4.24-.92h.25a11.45 11.45 0 0 1 4 .84 4 4 0 0 1 3.38-.85 2.24 2.24 0 0 1 .8 1.26 4 4 0 0 1 -.28 3.16.09.09 0 0 1 0 .07 11.92 11.92 0 0 1 .75 3.33c.09.89 1.73 1.42 2.3 1.54a.71.71 0 0 1 .55.55.71.71 0 0 1 -.55.84c-1.15.21-2.26.77-2.26 1.11.19.56 3 2 7.19 2.65a29.21 29.21 0 0 0 6.2.21c.72 0 1.5-.11 2.35-.11a61.48 61.48 0 0 1 10.51.15c4.7.55 7.69 1.07 10.1 1.48a62.14 62.14 0 0 0 9.51 1.11c4.57.19 6.56-1.81 7.34-2.81a3.53 3.53 0 0 0 .78-3.07 6.68 6.68 0 0 0 -3.38-4c-3.54-2-8.79-2.32-14-.82-3.27 1-6.09 1.93-8.58 2.8-4.24 1.48-7.89 2.75-11.89 3.18-6.65.71-10.93-1.23-11.65-5.34-.3-1.68.61-3.22 2.25-4.46a.67.67 0 0 1 -.32-.28c-.16-.26-.36-.72-.16-.94a4.07 4.07 0 0 1 3.3-1 1.41 1.41 0 0 1 -.38-.85c0-.3.06-.31.34-.4a3.92 3.92 0 0 1 4.78 1.59c.65 1.13.62.29.73.13s.16-.89-1-2a1.85 1.85 0 0 1 -.41-1.08c.06-.17.6-.17.91-.17a5 5 0 0 1 3.65 2 3.68 3.68 0 0 0 1.11.93c.75.28 4.76-.31 7-1.72a.75.75 0 0 1 1.1.94c-.31.64-3.33 6.23-14.16 6.32-2.48 0-3.25.58-3.31.86a1.28 1.28 0 0 0 .42.83 9.14 9.14 0 0 0 5.27.5 103.82 103.82 0 0 0 13.38-3.87c2.37-.81 4.41-1.41 6.32-1.89 4.41-1.11 9.05-1.55 13-.65 4.44 1 7.76 3.21 9.59 6.35a7.39 7.39 0 0 1 .08 7.88zm0-52.88c-2.13 3.47-7 5.49-12.51 5.16-3.95-.23-5.95-.45-7.36-.46l-1.09-.11.56.52a14.39 14.39 0 0 1 1.25 1.39c1.2 1.41 2.43 2.88 4.63 3.47a16.24 16.24 0 0 0 3.53.63h.67c2-.05 4.77-1.81 5-1.81a1 1 0 0 1 .91.18.7.7 0 0 1 .15.81v.08a.57.57 0 0 1 -.12.18c-.64.7-.87 1.38-.64 1.81.28.59 1.53.86 3 .59a.7.7 0 0 1 .44 1.32l-.15.08-.12.05c-.91.31-1.26.6-1.28.87s.66.93 2.38 1.33a.69.69 0 0 1 .51.61.71.71 0 0 1 -.63.78h-.2c-.86.07-1.78 1.6-1.78 4 0 1.85 0 3.21.16 4.28v.1a8.15 8.15 0 0 1 -.17 1.18c-.54 2.8-1.59 4.38-3.12 4.8a15.14 15.14 0 0 1 -3.49.28c-1.92 0-3.79-.14-3.92-.14a.67.67 0 0 1 -.49-.25.76.76 0 0 1 -.17-.52 11.58 11.58 0 0 1 .46-2.33 5.32 5.32 0 0 0 -1.06 2.19 1.08 1.08 0 0 1 -.1.56.71.71 0 0 1 -.51.29 15.86 15.86 0 0 1 -2 0 .71.71 0 0 1 -.63-.5.72.72 0 0 1 -.66.49 4.4 4.4 0 0 1 -1.69-.18.69.69 0 0 1 -.43-.61 5.29 5.29 0 0 1 .43-2.39c.94-1.86 2-2.4 3.26-2.32l.73.08a2.54 2.54 0 0 1 2.12-1 8.16 8.16 0 0 1 1.63.27l.45.11c.53 0 1.12-1.21 1.43-1.82a4.37 4.37 0 0 0 -1.69-5c-.49-.07-8.06-.69-10.41-1.45a25 25 0 0 1 -5.69-2.56 12.79 12.79 0 0 0 -2.61-1.32c-2.1.51-3.06 1.25-3 1.59s1.41 1.27 3.7 1.75l.75.21a.7.7 0 0 1 .52.76.72.72 0 0 1 -.67.63c-1.52.07-2.67.56-2.82 1.25s.8 1.62 2.26 2.21a.7.7 0 0 1 .35.35.71.71 0 0 1 -.35.94h-.08a.72.72 0 0 1 -.54 0c-1.31-.53-2.34-.44-2.56-.2s-.09.89.33 1.61a.71.71 0 0 1 -.12.86.72.72 0 0 1 -.87.09l-.33-.2c-.72-.46-2.48.2-4.07 2.2a2.12 2.12 0 0 0 -.51 1.15.33.33 0 0 1 0 .14c-.34 1.08-.71 1.64-2.56 2.17a13 13 0 0 1 -3.11.29c-1.63 0-3.16-.14-3.27-.14a.71.71 0 0 1 -.64-.76 12.08 12.08 0 0 1 .31-1.88 4.61 4.61 0 0 0 -.69 1.74.85.85 0 0 1 -.11.56.67.67 0 0 1 -.49.28 13.07 13.07 0 0 1 -1.77 0 .7.7 0 0 1 -.64-.54.71.71 0 0 1 -.67.53 4.34 4.34 0 0 1 -1.64-.17.71.71 0 0 1 -.43-.62 5.28 5.28 0 0 1 .41-2.32c.92-1.8 1.92-2.33 3.12-2.25a5.85 5.85 0 0 0 .65.07 2.24 2.24 0 0 1 1.94-.93 7.31 7.31 0 0 1 1.47.26l.38.1c.29 0 .75-.73 1.22-1.22l.61-.61c.2-.18.53-.44 1-.77.68-.53 1.51-1.18 2.23-1.86.38-.43.32-.67-1.15-2.56l-.29-.38c-2-2.56-2.27-5-.91-7.49a3 3 0 0 1 1.49-1.21 44 44 0 0 0 -6.29 1.91 18 18 0 0 0 -6 4.7 12.29 12.29 0 0 1 -2.53 2.46 8 8 0 0 1 -3.45.56h-.8c-2 .21-3.48 1.24-3.48 2.06a.7.7 0 0 1 -1.32.38c-.5-1.21-1.27-1.92-2-1.92a1.35 1.35 0 0 0 -.92.52 5 5 0 0 0 -.9 3.52v.16a.69.69 0 0 1 -.61.76.7.7 0 0 1 -.78-.58c-.27-1.6-1.08-2.6-1.7-2.6a.94.94 0 0 0 -.66.35 4.67 4.67 0 0 0 -.92 3.21v.07a.73.73 0 0 1 -.63.74.71.71 0 0 1 -.77-.57c-.2-1.3-.79-2-1.2-2-.57 0-1.44 1.21-1.57 3.21a.69.69 0 0 1 -.58.67.7.7 0 0 1 -.81-.57c-.17-.8-.53-1.41-.89-1.41-.52-.07-1.33.87-1.72 2.36a.7.7 0 0 1 -1.35 0c-.07-.2-.18-.45-.38-.52a3 3 0 0 0 -2.33 1h-.06a3.69 3.69 0 0 0 -1.08 1.31c-.1.18-.17.34-.24.49-.4.89-.74 1.39-2.46 1.89-2 .58-6.59.17-6.79.17a.71.71 0 0 1 -.64-.76 13.1 13.1 0 0 1 .4-2.32 5.25 5.25 0 0 0 -.9 2.17c0 .25 0 .39-.11.56a.65.65 0 0 1 -.49.29 11.8 11.8 0 0 1 -1.88 0 .7.7 0 0 1 -.65-.6 3.93 3.93 0 0 1 0-.84 3.16 3.16 0 0 0 -.25.79.7.7 0 0 1 -.69.64 4.15 4.15 0 0 1 -1.64-.18.7.7 0 0 1 -.4-.61 6 6 0 0 1 .39-2.45c.89-1.94 2-2.5 3.22-2.42l1 .09a2.39 2.39 0 0 1 2.06-1 8 8 0 0 1 1.62.26l.41.11c3.08-1.08 5.48-3.64 15.31-12.08.7-.61.45-.43.45-.43a8.13 8.13 0 0 0 -.78-.52 5.3 5.3 0 0 0 -4.37.59l-.13.07a.7.7 0 0 1 -.84-.17.67.67 0 0 1 -.15-.56c0-.2 0-.38.13-.49 1.44-.91 2.31-1.86 2-2.43s-2.11-.76-4.23.24h-.08a.71.71 0 0 1 -.92-.28.78.78 0 0 1 .13-1c1.17-.76 1.63-1.43 1.51-1.69-.21-.47-1.88-.67-3.88.09a.69.69 0 0 1 -.87-.34.77.77 0 0 1 .13-1c.77-.52 1.25-.83 1.11-1.21s-1.31-.73-3.08-.38a.7.7 0 0 1 -.77-.39.89.89 0 0 1 .08-1c.23-.18.46-.26.45-.37s-.14-.4-.59-.75l-.75-.62-.38-.35a5.3 5.3 0 0 0 -2.2-1.06 5.11 5.11 0 0 1 -2.3-1.15 5.56 5.56 0 0 1 -1.2-1.86l-.48-.82a4.32 4.32 0 0 0 -1.71-.22.73.73 0 0 1 -.69-.48 1.1 1.1 0 0 1 .1-.85c.1-.07.6-.26 1.1-.51l-.3-.31-.09-.04-.87-1a4.37 4.37 0 0 0 -1.72-.23.7.7 0 0 1 -.68-.48c-.1-.29-.15-.63.1-.81.07-.06.55-.27 1-.51-.07-.07-.61-.95-.72-1.07a3.57 3.57 0 0 0 -1.22 0 .69.69 0 0 1 -.73-.42c-.17-.29-.25-.61 0-.82s2.66-2 4.19-.9c.12.09.23.19.34.29 2.7-.53 4.37-.37 5.09.63.1.13.31.42.52.73a3.75 3.75 0 0 1 2.71 1.26 6.38 6.38 0 0 1 1 1.66 29.58 29.58 0 0 0 4.76 4.77c.53.4 3.46 2 5.25 2.86.4.16 6.06 2.42 9.59 2.34a2.24 2.24 0 0 0 .58-1.24c-.14-.62-1.65-1-2.42-1.06a1 1 0 0 1 -.82-.69c0-.33.19-.5.51-.61.59-.21 2.41-1 2.59-2 0-.23-1-.85-2.25-1.15a1 1 0 0 1 -.67-1c0-.29.41-.37.68-.43.76-.18 2.46-.8 2.52-1.47a14.4 14.4 0 0 1 .33-3.21l-.21-.35a4.16 4.16 0 0 1 -.28-3.17 2.29 2.29 0 0 1 .8-1.26 4.12 4.12 0 0 1 3.47.93 11.25 11.25 0 0 1 4.24-.92h.25a11.45 11.45 0 0 1 4 .84 4.11 4.11 0 0 1 3.38-.85 2.29 2.29 0 0 1 .8 1.26 4.07 4.07 0 0 1 -.28 3.17v.07a11.6 11.6 0 0 1 .72 3.39c.09.89 1.73 1.42 2.3 1.53a.72.72 0 0 1 .57.7.71.71 0 0 1 -.58.69c-1.15.21-2.26.77-2.26 1.12.19.55 3 2 7.19 2.65a29.88 29.88 0 0 0 6.2.2c.72 0 1.5-.1 2.35-.1a59.51 59.51 0 0 1 10.51.14c4.7.55 7.69 1.07 10.1 1.49a63.4 63.4 0 0 0 9.51 1.1c4.57.19 6.56-1.81 7.34-2.81a3.51 3.51 0 0 0 .78-3.06 6.62 6.62 0 0 0 -3.38-4c-3.54-2-8.79-2.33-14-.82-3.27.94-6.09 1.92-8.58 2.79-4.24 1.48-7.89 2.76-11.89 3.18-6.65.67-10.93-1.23-11.65-5.33-.3-1.68.61-3.23 2.25-4.47a.59.59 0 0 1 -.32-.28c-.16-.25-.36-.72-.16-.93a4 4 0 0 1 3.3-1 1.41 1.41 0 0 1 -.38-.85c0-.3.06-.3.34-.4a4 4 0 0 1 4.78 1.59c.65 1.14.62.3.73.14s.16-.89-1-2a1.85 1.85 0 0 1 -.41-1.08c.06-.17.6-.17.91-.17a5 5 0 0 1 3.65 2 3.73 3.73 0 0 0 1.11.94c.75.28 4.76-.32 7-1.72a.68.68 0 0 1 .89 0 .7.7 0 0 1 .21.89c-.31.64-3.33 6.23-14.16 6.33-2.48 0-3.25.57-3.31.86a1.28 1.28 0 0 0 .42.82 9 9 0 0 0 5.27.5 104.36 104.36 0 0 0 13.43-3.94c2.37-.81 4.41-1.4 6.32-1.89 4.41-1.1 9.05-1.55 13-.64 4.44 1 7.76 3.2 9.59 6.35a7.38 7.38 0 0 1 .11 7.93z"/><path d="m82.87 40.64a2.53 2.53 0 0 0 1.87-.78 2.08 2.08 0 0 0 .66-.86 8 8 0 0 0 -2.79-.32c-1.24.12-1.76.42-1.74.56s0 0 0 .07a1.69 1.69 0 0 0 2 1.33z"/><path d="m77.35 42.28a.14.14 0 0 0 .08.17l1.95 1h.16l1.87-1a.18.18 0 0 0 .08-.18.16.16 0 0 0 -.16-.11s-1.36.18-1.89.18-1.94-.18-1.94-.18a.15.15 0 0 0 -.15.12z"/><path d="m88.52 47.47a1.17 1.17 0 0 1 .48-.67c-.12 0-1.39.18-1.51.83a3.23 3.23 0 0 0 1.78 3.18c-1.85-.37-2.56.44-2.93 1.07a3.34 3.34 0 0 0 .37 3.27c-2.33-.22-4.19.78-4.33 2.11a2.38 2.38 0 0 0 .46 1.14v-.23c.21-1.51 3-2.34 5.64-2.1-.87-1.3-1.63-2.93-1-3.64.64-.74 1.89-1 4-.71-1.88-1.4-3.19-3.25-2.96-4.25z"/><path d="m76 40.6a1.69 1.69 0 0 0 2-1.41c0-.09-.51-.39-1.75-.51a7.74 7.74 0 0 0 -2.79.27 2.08 2.08 0 0 0 .66.86 2.55 2.55 0 0 0 1.88.78z"/><path d="m77.35 95.1a.15.15 0 0 0 .08.18l1.95 1h.08a.11.11 0 0 0 .08 0l1.87-1a.18.18 0 0 0 .08-.18.17.17 0 0 0 -.16-.12s-1.36.18-1.89.18-1.94-.16-1.94-.16a.15.15 0 0 0 -.15.1z"/><path d="m82.87 93.42a2.54 2.54 0 0 0 1.87-.79 2 2 0 0 0 .66-.85 7.74 7.74 0 0 0 -2.79-.27c-1.24.12-1.76.42-1.74.51s0 0 0 .07a1.69 1.69 0 0 0 2 1.33z"/><path d="m76 93.43a1.69 1.69 0 0 0 2-1.43c0-.09-.51-.39-1.75-.51a7.74 7.74 0 0 0 -2.79.27 2 2 0 0 0 .66.85 2.56 2.56 0 0 0 1.88.79z"/><path d="m88.52 100.26a1.19 1.19 0 0 1 .46-.68c-.12 0-1.39.19-1.51.84a3.23 3.23 0 0 0 1.78 3.18c-1.85-.38-2.56.44-2.93 1.07a3.39 3.39 0 0 0 .37 3.27c-2.33-.22-4.19.78-4.33 2.11a2.38 2.38 0 0 0 .46 1.14v-.19c.21-1.5 3-2.33 5.64-2.09-.87-1.3-1.63-2.94-1-3.65.64-.73 1.89-1 4-.75-1.86-1.4-3.17-3.25-2.94-4.25z"/></g></svg>
